Ostrich Sans Inline Regular.ufo
<glyph name="numbersign" format="1">
  <advance width="562"/>
  <unicode hex="0023"/>
  <outline>
    <contour>
      <point x="159" y="257" type="line"/>
      <point x="303" y="257" type="line"/>
      <point x="333" y="416" type="line"/>
      <point x="190" y="416" type="line"/>
    </contour>
    <contour>
      <point x="136" y="239" type="line"/>
      <point x="5" y="239" type="line"/>
      <point x="5" y="257" type="line"/>
      <point x="141" y="257" type="line"/>
      <point x="171" y="416" type="line"/>
      <point x="33" y="416" type="line"/>
      <point x="33" y="434" type="line"/>
      <point x="175" y="434" type="line"/>
      <point x="217" y="647" type="line"/>
      <point x="235" y="647" type="line"/>
      <point x="193" y="434" type="line"/>
      <point x="337" y="434" type="line"/>
      <point x="350" y="505"/>
      <point x="366" y="576"/>
      <point x="379" y="647" type="curve"/>
      <point x="397" y="647" type="line"/>
      <point x="356" y="434" type="line"/>
      <point x="470" y="434" type="line"/>
      <point x="470" y="416" type="line"/>
      <point x="352" y="416" type="line"/>
      <point x="342" y="363"/>
      <point x="331" y="310"/>
      <point x="322" y="257" type="curve"/>
      <point x="440" y="257" type="line"/>
      <point x="440" y="239" type="line"/>
      <point x="316" y="239" type="line"/>
      <point x="276" y="28" type="line"/>
      <point x="258" y="28" type="line"/>
      <point x="299" y="239" type="line"/>
      <point x="155" y="239" type="line"/>
      <point x="112" y="28" type="line"/>
      <point x="95" y="28" type="line"/>
    </contour>
    <contour>
      <point x="62" y="0" type="line"/>
      <point x="134" y="0" type="line"/>
      <point x="178" y="211" type="line"/>
      <point x="266" y="211" type="line"/>
      <point x="224" y="0" type="line"/>
      <point x="299" y="0" type="line"/>
      <point x="310" y="59"/>
      <point x="328" y="147"/>
      <point x="340" y="211" type="curve"/>
      <point x="468" y="211" type="line"/>
      <point x="468" y="285" type="line"/>
      <point x="355" y="285" type="line"/>
      <point x="360" y="320"/>
      <point x="361" y="321"/>
      <point x="368" y="354" type="curve"/>
      <point x="370" y="366"/>
      <point x="371" y="377"/>
      <point x="374" y="388" type="curve"/>
      <point x="497" y="388" type="line"/>
      <point x="497" y="462" type="line"/>
      <point x="389" y="462" type="line"/>
      <point x="430" y="674" type="line"/>
      <point x="355" y="674" type="line"/>
      <point x="348" y="638"/>
      <point x="338" y="580"/>
      <point x="331" y="546" type="curve" smooth="yes"/>
      <point x="314" y="462" type="line"/>
      <point x="226" y="462" type="line"/>
      <point x="269" y="674" type="line"/>
      <point x="195" y="674" type="line"/>
      <point x="152" y="462" type="line"/>
      <point x="6" y="462" type="line"/>
      <point x="6" y="388" type="line"/>
      <point x="138" y="388" type="line"/>
      <point x="119" y="285" type="line"/>
      <point x="-23" y="285" type="line"/>
      <point x="-23" y="211" type="line"/>
      <point x="103" y="211" type="line"/>
    </contour>
    <contour>
      <point x="212" y="388" type="line"/>
      <point x="300" y="388" type="line"/>
      <point x="280" y="285" type="line"/>
      <point x="192" y="285" type="line"/>
    </contour>
  </outline>
</glyph>
<glyph name="dollar" format="1">
  <advance width="340"/>
  <unicode hex="0024"/>
  <outline>
    <contour>
      <point x="248" y="250"/>
      <point x="204" y="289"/>
      <point x="169" y="318" type="curve"/>
      <point x="169" y="95" type="line"/>
      <point x="227" y="102"/>
      <point x="248" y="147"/>
      <point x="248" y="201" type="curve" smooth="yes"/>
    </contour>
    <contour>
      <point x="77" y="426"/>
      <point x="113" y="386"/>
      <point x="150" y="355" type="curve"/>
      <point x="150" y="579" type="line"/>
      <point x="105" y="568"/>
      <point x="77" y="522"/>
      <point x="77" y="477" type="curve" smooth="yes"/>
    </contour>
    <contour>
      <point x="150" y="76" type="line"/>
      <point x="75" y="84"/>
      <point x="53" y="150"/>
      <point x="53" y="216" type="curve" smooth="yes"/>
      <point x="53" y="230" type="line"/>
      <point x="71" y="230" type="line"/>
      <point x="71" y="178"/>
      <point x="83" y="99"/>
      <point x="150" y="95" type="curve"/>
      <point x="150" y="333" type="line"/>
      <point x="103" y="370"/>
      <point x="58" y="414"/>
      <point x="58" y="478" type="curve" smooth="yes"/>
      <point x="58" y="532"/>
      <point x="94" y="588"/>
      <point x="150" y="598" type="curve"/>
      <point x="150" y="647" type="line"/>
      <point x="169" y="647" type="line"/>
      <point x="169" y="599" type="line"/>
      <point x="248" y="597"/>
      <point x="265" y="523"/>
      <point x="265" y="457" type="curve" smooth="yes"/>
      <point x="265" y="451" type="line"/>
      <point x="247" y="451" type="line"/>
      <point x="247" y="505"/>
      <point x="238" y="579"/>
      <point x="169" y="580" type="curve"/>
      <point x="169" y="340" type="line"/>
      <point x="214" y="307"/>
      <point x="266" y="261"/>
      <point x="266" y="200" type="curve" smooth="yes"/>
      <point x="266" y="140"/>
      <point x="235" y="80"/>
      <point x="169" y="76" type="curve"/>
      <point x="169" y="28" type="line"/>
      <point x="150" y="28" type="line"/>
    </contour>
    <contour>
      <point x="122" y="0" type="line"/>
      <point x="196" y="0" type="line"/>
      <point x="196" y="52" type="line"/>
      <point x="262" y="69"/>
      <point x="294" y="134"/>
      <point x="294" y="200" type="curve" smooth="yes"/>
      <point x="294" y="264"/>
      <point x="242" y="318"/>
      <point x="196" y="354" type="curve"/>
      <point x="196" y="542" type="line"/>
      <point x="218" y="523"/>
      <point x="219" y="469"/>
      <point x="219" y="423" type="curve"/>
      <point x="293" y="423" type="line"/>
      <point x="293" y="457" type="line" smooth="yes"/>
      <point x="293" y="530"/>
      <point x="279" y="611"/>
      <point x="196" y="624" type="curve"/>
      <point x="196" y="675" type="line"/>
      <point x="122" y="675" type="line"/>
      <point x="122" y="619" type="line"/>
      <point x="67" y="596"/>
      <point x="30" y="535"/>
      <point x="30" y="478" type="curve" smooth="yes"/>
      <point x="30" y="407"/>
      <point x="73" y="358"/>
      <point x="122" y="319" type="curve"/>
      <point x="122" y="136" type="line"/>
      <point x="102" y="157"/>
      <point x="98" y="215"/>
      <point x="98" y="257" type="curve"/>
      <point x="26" y="257" type="line"/>
      <point x="26" y="216" type="line" smooth="yes"/>
      <point x="26" y="144"/>
      <point x="47" y="74"/>
      <point x="122" y="54" type="curve"/>
    </contour>
    <contour>
      <point x="105" y="495"/>
      <point x="112" y="515"/>
      <point x="122" y="530" type="curve"/>
      <point x="122" y="423" type="line"/>
      <point x="109" y="441"/>
      <point x="105" y="456"/>
      <point x="105" y="477" type="curve" smooth="yes"/>
    </contour>
    <contour>
      <point x="220" y="174"/>
      <point x="213" y="150"/>
      <point x="196" y="135" type="curve"/>
      <point x="196" y="255" type="line"/>
      <point x="209" y="240"/>
      <point x="220" y="219"/>
      <point x="220" y="201" type="curve" smooth="yes"/>
    </contour>
  </outline>
</glyph>
<glyph name="parenleft" format="1">
  <advance width="186"/>
  <unicode hex="0028"/>
  <outline>
    <contour>
      <point x="107" y="33" type="line"/>
      <point x="35" y="120"/>
      <point x="23" y="252"/>
      <point x="23" y="339" type="curve" smooth="yes"/>
      <point x="23" y="427"/>
      <point x="36" y="556"/>
      <point x="109" y="644" type="curve"/>
      <point x="119" y="625" type="line"/>
      <point x="62" y="554"/>
      <point x="45" y="420"/>
      <point x="45" y="339" type="curve" smooth="yes"/>
      <point x="45" y="252"/>
      <point x="56" y="125"/>
      <point x="120" y="46" type="curve"/>
    </contour>
    <contour>
      <point x="157" y="44" type="line"/>
      <point x="88" y="121"/>
      <point x="68" y="237"/>
      <point x="68" y="339" type="curve" smooth="yes"/>
      <point x="68" y="415"/>
      <point x="84" y="556"/>
      <point x="153" y="619" type="curve"/>
      <point x="118" y="689" type="line"/>
      <point x="17" y="598"/>
      <point x="-1" y="432"/>
      <point x="-1" y="339" type="curve" smooth="yes"/>
      <point x="-1" y="247"/>
      <point x="15" y="84"/>
      <point x="107" y="-6" type="curve"/>
    </contour>
  </outline>
</glyph>
<glyph name="plus" format="1">
  <advance width="346"/>
  <unicode hex="002B"/>
  <outline>
    <contour>
      <point x="268" y="326" type="line"/>
      <point x="158" y="326" type="line"/>
      <point x="158" y="208" type="line"/>
      <point x="140" y="208" type="line"/>
      <point x="140" y="326" type="line"/>
      <point x="32" y="326" type="line"/>
      <point x="32" y="344" type="line"/>
      <point x="140" y="344" type="line"/>
      <point x="140" y="462" type="line"/>
      <point x="158" y="462" type="line"/>
      <point x="158" y="344" type="line"/>
      <point x="268" y="344" type="line"/>
    </contour>
    <contour>
      <point x="295" y="372" type="line"/>
      <point x="186" y="372" type="line"/>
      <point x="186" y="489" type="line"/>
      <point x="112" y="489" type="line"/>
      <point x="112" y="372" type="line"/>
      <point x="4" y="372" type="line"/>
      <point x="4" y="298" type="line"/>
      <point x="112" y="298" type="line"/>
      <point x="112" y="181" type="line"/>
      <point x="186" y="181" type="line"/>
      <point x="186" y="298" type="line"/>
      <point x="295" y="298" type="line"/>
    </contour>
  </outline>
</glyph>
<glyph name="period" format="1">
  <advance width="127"/>
  <unicode hex="002E"/>
  <outline>
    <contour>
      <point x="28" y="28" type="line"/>
      <point x="28" y="49" type="line"/>
      <point x="47" y="49" type="line"/>
      <point x="47" y="28" type="line"/>
    </contour>
    <contour>
      <point x="72" y="0" type="line"/>
      <point x="72" y="76" type="line"/>
      <point x="4" y="76" type="line"/>
      <point x="4" y="0" type="line"/>
    </contour>
  </outline>
</glyph>
<glyph name="one" format="1">
  <advance width="214"/>
  <unicode hex="0031"/>
  <outline>
    <contour>
      <point x="138" y="647" type="line"/>
      <point x="138" y="28" type="line"/>
      <point x="119" y="28" type="line"/>
      <point x="119" y="618" type="line"/>
      <point x="40" y="517" type="line"/>
      <point x="29" y="528" type="line"/>
      <point x="118" y="647" type="line"/>
    </contour>
    <contour>
      <point x="105" y="674" type="line"/>
      <point x="31" y="578" type="line"/>
      <point x="-7" y="525" type="line"/>
      <point x="42" y="477" type="line"/>
      <point x="92" y="538" type="line"/>
      <point x="92" y="0" type="line"/>
      <point x="165" y="0" type="line"/>
      <point x="165" y="674" type="line"/>
    </contour>
  </outline>
</glyph>
<glyph name="six" format="1">
  <advance width="332"/>
  <unicode hex="0036"/>
  <outline>
    <contour>
      <point x="47" y="160" type="line" smooth="yes"/>
      <point x="47" y="99"/>
      <point x="69" y="41"/>
      <point x="140" y="41" type="curve" smooth="yes"/>
      <point x="211" y="41"/>
      <point x="232" y="123"/>
      <point x="232" y="181" type="curve" smooth="yes"/>
      <point x="232" y="268" type="line" smooth="yes"/>
      <point x="232" y="332"/>
      <point x="219" y="399"/>
      <point x="141" y="399" type="curve" smooth="yes"/>
      <point x="76" y="399"/>
      <point x="47" y="335"/>
      <point x="47" y="278" type="curve" smooth="yes"/>
    </contour>
    <contour>
      <point x="59" y="23"/>
      <point x="29" y="82"/>
      <point x="29" y="155" type="curve" smooth="yes"/>
      <point x="29" y="464" type="line" smooth="yes"/>
      <point x="29" y="542"/>
      <point x="47" y="651"/>
      <point x="146" y="651" type="curve" smooth="yes"/>
      <point x="226" y="651"/>
      <point x="252" y="588"/>
      <point x="252" y="518" type="curve" smooth="yes"/>
      <point x="252" y="496" type="line"/>
      <point x="232" y="496" type="line"/>
      <point x="233" y="559"/>
      <point x="230" y="634"/>
      <point x="146" y="634" type="curve" smooth="yes"/>
      <point x="61" y="634"/>
      <point x="47" y="529"/>
      <point x="47" y="464" type="curve" smooth="yes"/>
      <point x="47" y="357" type="line"/>
      <point x="63" y="392"/>
      <point x="102" y="417"/>
      <point x="141" y="417" type="curve" smooth="yes"/>
      <point x="231" y="417"/>
      <point x="251" y="343"/>
      <point x="251" y="268" type="curve" smooth="yes"/>
      <point x="251" y="176" type="line" smooth="yes"/>
      <point x="251" y="108"/>
      <point x="220" y="23"/>
      <point x="140" y="23" type="curve" smooth="yes"/>
    </contour>
    <contour>
      <point x="241" y="-5"/>
      <point x="278" y="96"/>
      <point x="278" y="176" type="curve" smooth="yes"/>
      <point x="278" y="268" type="line" smooth="yes"/>
      <point x="278" y="357"/>
      <point x="254" y="444"/>
      <point x="141" y="444" type="curve" smooth="yes"/>
      <point x="118" y="444"/>
      <point x="95" y="437"/>
      <point x="74" y="425" type="curve"/>
      <point x="74" y="464" type="line" smooth="yes"/>
      <point x="74" y="518"/>
      <point x="84" y="606"/>
      <point x="146" y="606" type="curve" smooth="yes"/>
      <point x="204" y="606"/>
      <point x="206" y="532"/>
      <point x="205" y="468" type="curve"/>
      <point x="279" y="468" type="line"/>
      <point x="279" y="518" type="line" smooth="yes"/>
      <point x="279" y="602"/>
      <point x="247" y="679"/>
      <point x="146" y="679" type="curve" smooth="yes"/>
      <point x="23" y="679"/>
      <point x="2" y="553"/>
      <point x="2" y="464" type="curve" smooth="yes"/>
      <point x="2" y="155" type="line" smooth="yes"/>
      <point x="2" y="66"/>
      <point x="39" y="-5"/>
      <point x="140" y="-5" type="curve" smooth="yes"/>
    </contour>
    <contour>
      <point x="74" y="278" type="line" smooth="yes"/>
      <point x="74" y="322"/>
      <point x="95" y="372"/>
      <point x="141" y="372" type="curve" smooth="yes"/>
      <point x="196" y="372"/>
      <point x="205" y="319"/>
      <point x="205" y="268" type="curve" smooth="yes"/>
      <point x="205" y="181" type="line" smooth="yes"/>
      <point x="205" y="134"/>
      <point x="190" y="69"/>
      <point x="140" y="69" type="curve" smooth="yes"/>
      <point x="90" y="69"/>
      <point x="74" y="113"/>
      <point x="74" y="160" type="curve" smooth="yes"/>
    </contour>
  </outline>
</glyph>
<glyph name="nine" format="1">
  <advance width="328"/>
  <unicode hex="0039"/>
  <outline>
    <contour>
      <point x="233" y="514" type="line" smooth="yes"/>
      <point x="233" y="575"/>
      <point x="211" y="633"/>
      <point x="140" y="633" type="curve" smooth="yes"/>
      <point x="69" y="633"/>
      <point x="48" y="551"/>
      <point x="48" y="493" type="curve" smooth="yes"/>
      <point x="48" y="406" type="line" smooth="yes"/>
      <point x="48" y="343"/>
      <point x="61" y="275"/>
      <point x="139" y="275" type="curve" smooth="yes"/>
      <point x="204" y="275"/>
      <point x="233" y="339"/>
      <point x="233" y="396" type="curve" smooth="yes"/>
    </contour>
    <contour>
      <point x="221" y="651"/>
      <point x="252" y="592"/>
      <point x="252" y="519" type="curve" smooth="yes"/>
      <point x="252" y="210" type="line" smooth="yes"/>
      <point x="252" y="131"/>
      <point x="234" y="23"/>
      <point x="134" y="23" type="curve" smooth="yes"/>
      <point x="54" y="23"/>
      <point x="29" y="86"/>
      <point x="29" y="156" type="curve" smooth="yes"/>
      <point x="29" y="178" type="line"/>
      <point x="48" y="178" type="line"/>
      <point x="47" y="115"/>
      <point x="50" y="40"/>
      <point x="134" y="40" type="curve" smooth="yes"/>
      <point x="219" y="40"/>
      <point x="233" y="145"/>
      <point x="233" y="210" type="curve" smooth="yes"/>
      <point x="233" y="317" type="line"/>
      <point x="216" y="281"/>
      <point x="178" y="257"/>
      <point x="139" y="257" type="curve" smooth="yes"/>
      <point x="49" y="257"/>
      <point x="30" y="331"/>
      <point x="30" y="406" type="curve" smooth="yes"/>
      <point x="30" y="498" type="line" smooth="yes"/>
      <point x="30" y="566"/>
      <point x="60" y="651"/>
      <point x="140" y="651" type="curve" smooth="yes"/>
    </contour>
    <contour>
      <point x="39" y="679"/>
      <point x="3" y="578"/>
      <point x="3" y="498" type="curve" smooth="yes"/>
      <point x="3" y="406" type="line" smooth="yes"/>
      <point x="3" y="317"/>
      <point x="26" y="230"/>
      <point x="139" y="230" type="curve" smooth="yes"/>
      <point x="162" y="230"/>
      <point x="186" y="237"/>
      <point x="206" y="248" type="curve"/>
      <point x="206" y="210" type="line" smooth="yes"/>
      <point x="206" y="156"/>
      <point x="196" y="68"/>
      <point x="134" y="68" type="curve" smooth="yes"/>
      <point x="76" y="68"/>
      <point x="74" y="142"/>
      <point x="75" y="206" type="curve"/>
      <point x="2" y="206" type="line"/>
      <point x="2" y="156" type="line" smooth="yes"/>
      <point x="2" y="72"/>
      <point x="33" y="-5"/>
      <point x="134" y="-5" type="curve" smooth="yes"/>
      <point x="258" y="-5"/>
      <point x="279" y="119"/>
      <point x="279" y="210" type="curve" smooth="yes"/>
      <point x="279" y="519" type="line" smooth="yes"/>
      <point x="279" y="608"/>
      <point x="241" y="679"/>
      <point x="140" y="679" type="curve" smooth="yes"/>
    </contour>
    <contour>
      <point x="206" y="396" type="line" smooth="yes"/>
      <point x="206" y="352"/>
      <point x="185" y="302"/>
      <point x="139" y="302" type="curve" smooth="yes"/>
      <point x="84" y="302"/>
      <point x="75" y="355"/>
      <point x="75" y="406" type="curve" smooth="yes"/>
      <point x="75" y="493" type="line" smooth="yes"/>
      <point x="75" y="540"/>
      <point x="90" y="605"/>
      <point x="140" y="605" type="curve" smooth="yes"/>
      <point x="190" y="605"/>
      <point x="206" y="561"/>
      <point x="206" y="514" type="curve" smooth="yes"/>
    </contour>
  </outline>
</glyph>
<glyph name="semicolon" format="1">
  <advance width="117"/>
  <unicode hex="003B"/>
  <outline>
    <contour>
      <point x="-1" y="142" type="line"/>
      <point x="24" y="209" type="line"/>
      <point x="45" y="209" type="line"/>
      <point x="16" y="142" type="line"/>
    </contour>
    <contour>
      <point x="55" y="478" type="line"/>
      <point x="55" y="437" type="line"/>
      <point x="32" y="437" type="line"/>
      <point x="32" y="478" type="line"/>
    </contour>
    <contour>
      <point x="5" y="505" type="line"/>
      <point x="5" y="410" type="line"/>
      <point x="82" y="410" type="line"/>
      <point x="82" y="505" type="line"/>
    </contour>
    <contour>
      <point x="30" y="115" type="line"/>
      <point x="83" y="237" type="line"/>
      <point x="9" y="237" type="line"/>
      <point x="-36" y="115" type="line"/>
    </contour>
  </outline>
</glyph>
<glyph name="question" format="1">
  <advance width="346"/>
  <unicode hex="003F"/>
  <outline>
    <contour>
      <point x="107" y="124" type="line"/>
      <point x="180" y="124" type="line"/>
      <point x="180" y="163" type="line" smooth="yes"/>
      <point x="180" y="224"/>
      <point x="183" y="259"/>
      <point x="217" y="305" type="curve"/>
      <point x="262" y="361"/>
      <point x="300" y="421"/>
      <point x="300" y="502" type="curve" smooth="yes"/>
      <point x="300" y="598"/>
      <point x="261" y="680"/>
      <point x="150" y="680" type="curve" smooth="yes"/>
      <point x="29" y="680"/>
      <point x="-2" y="548"/>
      <point x="-2" y="443" type="curve"/>
      <point x="71" y="443" type="line"/>
      <point x="71" y="512"/>
      <point x="86" y="606"/>
      <point x="149" y="606" type="curve" smooth="yes"/>
      <point x="211" y="606"/>
      <point x="226" y="556"/>
      <point x="226" y="498" type="curve" smooth="yes"/>
      <point x="226" y="439"/>
      <point x="206" y="411"/>
      <point x="183" y="380" type="curve"/>
      <point x="183" y="381" type="line"/>
      <point x="147" y="332"/>
      <point x="107" y="316"/>
      <point x="107" y="167" type="curve" smooth="yes"/>
    </contour>
    <contour>
      <point x="180" y="0" type="line"/>
      <point x="180" y="84" type="line"/>
      <point x="107" y="84" type="line"/>
      <point x="107" y="0" type="line"/>
    </contour>
    <contour>
      <point x="153" y="28" type="line"/>
      <point x="134" y="28" type="line"/>
      <point x="134" y="57" type="line"/>
      <point x="153" y="57" type="line"/>
    </contour>
    <contour>
      <point x="134" y="152" type="line"/>
      <point x="134" y="167" type="line" smooth="yes"/>
      <point x="134" y="372"/>
      <point x="254" y="347"/>
      <point x="254" y="498" type="curve" smooth="yes"/>
      <point x="254" y="570"/>
      <point x="233" y="634"/>
      <point x="149" y="634" type="curve" smooth="yes"/>
      <point x="63" y="634"/>
      <point x="43" y="539"/>
      <point x="43" y="470" type="curve"/>
      <point x="26" y="470" type="line"/>
      <point x="26" y="551"/>
      <point x="51" y="652"/>
      <point x="150" y="652" type="curve" smooth="yes"/>
      <point x="241" y="652"/>
      <point x="272" y="583"/>
      <point x="272" y="502" type="curve" smooth="yes"/>
      <point x="272" y="424"/>
      <point x="243" y="380"/>
      <point x="196" y="322" type="curve"/>
      <point x="196" y="322" type="line"/>
      <point x="153" y="258"/>
      <point x="153" y="200"/>
      <point x="153" y="152" type="curve"/>
    </contour>
  </outline>
</glyph>
<glyph name="B" format="1">
  <advance width="349"/>
  <unicode hex="0042"/>
  <outline>
    <contour>
      <point x="233" y="46"/>
      <point x="258" y="102"/>
      <point x="258" y="186" type="curve" smooth="yes"/>
      <point x="258" y="274"/>
      <point x="226" y="327"/>
      <point x="133" y="327" type="curve" smooth="yes"/>
      <point x="49" y="327" type="line"/>
      <point x="49" y="46" type="line"/>
      <point x="140" y="46" type="line" smooth="yes"/>
    </contour>
    <contour>
      <point x="49" y="344" type="line"/>
      <point x="125" y="344" type="line" smooth="yes"/>
      <point x="215" y="344"/>
      <point x="248" y="405"/>
      <point x="248" y="488" type="curve" smooth="yes"/>
      <point x="248" y="576"/>
      <point x="209" y="629"/>
      <point x="118" y="629" type="curve" smooth="yes"/>
      <point x="49" y="629" type="line"/>
    </contour>
    <contour>
      <point x="266" y="423"/>
      <point x="248" y="363"/>
      <point x="183" y="338" type="curve"/>
      <point x="255" y="323"/>
      <point x="277" y="253"/>
      <point x="277" y="186" type="curve" smooth="yes"/>
      <point x="277" y="92"/>
      <point x="246" y="28"/>
      <point x="143" y="28" type="curve" smooth="yes"/>
      <point x="30" y="28" type="line"/>
      <point x="30" y="647" type="line"/>
      <point x="116" y="647" type="line" smooth="yes"/>
      <point x="221" y="647"/>
      <point x="266" y="591"/>
      <point x="266" y="488" type="curve" smooth="yes"/>
    </contour>
    <contour>
      <point x="294" y="608"/>
      <point x="241" y="674"/>
      <point x="116" y="674" type="curve" smooth="yes"/>
      <point x="3" y="674" type="line"/>
      <point x="3" y="0" type="line"/>
      <point x="143" y="0" type="line" smooth="yes"/>
      <point x="267" y="0"/>
      <point x="305" y="75"/>
      <point x="305" y="186" type="curve" smooth="yes"/>
      <point x="305" y="246"/>
      <point x="289" y="308"/>
      <point x="241" y="342" type="curve"/>
      <point x="283" y="377"/>
      <point x="294" y="431"/>
      <point x="294" y="488" type="curve" smooth="yes"/>
    </contour>
    <contour>
      <point x="76" y="602" type="line"/>
      <point x="118" y="602" type="line" smooth="yes"/>
      <point x="190" y="602"/>
      <point x="220" y="558"/>
      <point x="220" y="488" type="curve" smooth="yes"/>
      <point x="220" y="421"/>
      <point x="195" y="372"/>
      <point x="125" y="372" type="curve" smooth="yes"/>
      <point x="76" y="372" type="line"/>
    </contour>
    <contour>
      <point x="76" y="73" type="line"/>
      <point x="76" y="299" type="line"/>
      <point x="133" y="299" type="line" smooth="yes"/>
      <point x="206" y="299"/>
      <point x="230" y="256"/>
      <point x="230" y="186" type="curve" smooth="yes"/>
      <point x="230" y="118"/>
      <point x="211" y="73"/>
      <point x="140" y="73" type="curve" smooth="yes"/>
    </contour>
  </outline>
</glyph>
<glyph name="F" format="1">
  <advance width="310"/>
  <unicode hex="0046"/>
  <outline>
    <contour>
      <point x="44" y="629" type="line"/>
      <point x="44" y="344" type="line"/>
      <point x="176" y="344" type="line"/>
      <point x="176" y="327" type="line"/>
      <point x="44" y="327" type="line"/>
      <point x="44" y="28" type="line"/>
      <point x="27" y="28" type="line"/>
      <point x="26" y="647" type="line"/>
      <point x="241" y="647" type="line"/>
      <point x="241" y="629" type="line"/>
    </contour>
    <contour>
      <point x="269" y="602" type="line"/>
      <point x="269" y="674" type="line"/>
      <point x="-1" y="674" type="line"/>
      <point x="0" y="0" type="line"/>
      <point x="71" y="0" type="line"/>
      <point x="71" y="299" type="line"/>
      <point x="204" y="299" type="line"/>
      <point x="204" y="372" type="line"/>
      <point x="71" y="372" type="line"/>
      <point x="71" y="602" type="line"/>
    </contour>
  </outline>
</glyph>
<glyph name="K" format="1">
  <advance width="334"/>
  <unicode hex="004B"/>
  <outline>
    <contour>
      <point x="262" y="647" type="line"/>
      <point x="102" y="361" type="line"/>
      <point x="278" y="28" type="line"/>
      <point x="257" y="28" type="line"/>
      <point x="90" y="341" type="line"/>
      <point x="50" y="275" type="line"/>
      <point x="50" y="28" type="line"/>
      <point x="31" y="28" type="line"/>
      <point x="31" y="647" type="line"/>
      <point x="50" y="647" type="line"/>
      <point x="50" y="307" type="line"/>
      <point x="240" y="647" type="line"/>
    </contour>
    <contour>
      <point x="311" y="675" type="line"/>
      <point x="224" y="675" type="line"/>
      <point x="77" y="408" type="line"/>
      <point x="77" y="675" type="line"/>
      <point x="4" y="675" type="line"/>
      <point x="4" y="0" type="line"/>
      <point x="77" y="0" type="line"/>
      <point x="77" y="268" type="line"/>
      <point x="88" y="287" type="line"/>
      <point x="240" y="0" type="line"/>
      <point x="325" y="0" type="line"/>
      <point x="133" y="360" type="line"/>
    </contour>
  </outline>
</glyph>
<glyph name="V" format="1">
  <advance width="394"/>
  <unicode hex="0056"/>
  <outline>
    <contour>
      <point x="324" y="647" type="line"/>
      <point x="182" y="28" type="line"/>
      <point x="167" y="28" type="line"/>
      <point x="23" y="647" type="line"/>
      <point x="42" y="647" type="line"/>
      <point x="175" y="71" type="line"/>
      <point x="305" y="647" type="line"/>
    </contour>
    <contour>
      <point x="283" y="675" type="line"/>
      <point x="175" y="195" type="line"/>
      <point x="64" y="675" type="line"/>
      <point x="-12" y="675" type="line"/>
      <point x="145" y="1" type="line"/>
      <point x="204" y="1" type="line"/>
      <point x="358" y="675" type="line"/>
    </contour>
  </outline>
</glyph>
<glyph name="W" format="1">
  <advance width="588"/>
  <unicode hex="0057"/>
  <outline>
    <contour>
      <point x="521" y="647" type="line"/>
      <point x="388" y="28" type="line"/>
      <point x="373" y="28" type="line"/>
      <point x="275" y="583" type="line"/>
      <point x="176" y="28" type="line"/>
      <point x="162" y="28" type="line"/>
      <point x="27" y="647" type="line"/>
      <point x="44" y="647" type="line"/>
      <point x="169" y="82" type="line"/>
      <point x="267" y="647" type="line"/>
      <point x="282" y="647" type="line"/>
      <point x="381" y="82" type="line"/>
      <point x="502" y="647" type="line"/>
    </contour>
    <contour>
      <point x="480" y="674" type="line"/>
      <point x="384" y="226" type="line"/>
      <point x="306" y="674" type="line"/>
      <point x="243" y="674" type="line"/>
      <point x="219" y="530"/>
      <point x="191" y="377"/>
      <point x="165" y="226" type="curve"/>
      <point x="66" y="674" type="line"/>
      <point x="-7" y="674" type="line"/>
      <point x="140" y="0" type="line"/>
      <point x="200" y="0" type="line"/>
      <point x="223" y="134"/>
      <point x="250" y="279"/>
      <point x="275" y="420" type="curve"/>
      <point x="349" y="0" type="line"/>
      <point x="410" y="0" type="line"/>
      <point x="555" y="674" type="line"/>
    </contour>
  </outline>
</glyph>
<glyph name="X" format="1">
  <advance width="350"/>
  <unicode hex="0058"/>
  <outline>
    <contour>
      <point x="138" y="334" type="line"/>
      <point x="99" y="438"/>
      <point x="59" y="542"/>
      <point x="21" y="647" type="curve"/>
      <point x="41" y="647" type="line"/>
      <point x="148" y="359" type="line"/>
      <point x="256" y="647" type="line"/>
      <point x="275" y="647" type="line"/>
      <point x="158" y="334" type="line"/>
      <point x="198" y="232"/>
      <point x="238" y="130"/>
      <point x="278" y="28" type="curve"/>
      <point x="259" y="28" type="line"/>
      <point x="148" y="309" type="line"/>
      <point x="38" y="28" type="line"/>
      <point x="19" y="28" type="line"/>
    </contour>
    <contour>
      <point x="-22" y="0" type="line"/>
      <point x="57" y="0" type="line"/>
      <point x="148" y="234" type="line"/>
      <point x="240" y="0" type="line"/>
      <point x="318" y="0" type="line"/>
      <point x="218" y="255"/>
      <point x="203" y="296"/>
      <point x="188" y="335" type="curve"/>
      <point x="314" y="674" type="line"/>
      <point x="236" y="674" type="line"/>
      <point x="148" y="437" type="line"/>
      <point x="60" y="674" type="line"/>
      <point x="-17" y="674" type="line"/>
      <point x="7" y="608"/>
      <point x="44" y="505"/>
      <point x="109" y="335" type="curve"/>
    </contour>
  </outline>
</glyph>
<glyph name="backslash" format="1">
  <advance width="400"/>
  <unicode hex="005C"/>
  <outline>
    <contour>
      <point x="312" y="28" type="line"/>
      <point x="292" y="28" type="line"/>
      <point x="45" y="647" type="line"/>
      <point x="64" y="647" type="line"/>
    </contour>
    <contour>
      <point x="82" y="674" type="line"/>
      <point x="4" y="674" type="line"/>
      <point x="273" y="0" type="line"/>
      <point x="352" y="0" type="line"/>
    </contour>
  </outline>
</glyph>
<glyph name="grave" format="1">
  <advance width="166"/>
  <unicode hex="0060"/>
  <outline>
    <contour>
      <point x="75" y="571" type="line"/>
      <point x="25" y="647" type="line"/>
      <point x="46" y="647" type="line"/>
      <point x="93" y="571" type="line"/>
    </contour>
    <contour>
      <point x="142" y="544" type="line"/>
      <point x="61" y="675" type="line"/>
      <point x="-27" y="675" type="line"/>
      <point x="61" y="544" type="line"/>
    </contour>
  </outline>
</glyph>
<glyph name="d" format="1">
  <advance width="378"/>
  <unicode hex="0064"/>
  <outline>
    <contour>
      <point x="49" y="45" type="line"/>
      <point x="141" y="45" type="line" smooth="yes"/>
      <point x="236" y="45"/>
      <point x="270" y="111"/>
      <point x="270" y="197" type="curve" smooth="yes"/>
      <point x="270" y="477" type="line" smooth="yes"/>
      <point x="270" y="563"/>
      <point x="236" y="629"/>
      <point x="141" y="629" type="curve" smooth="yes"/>
      <point x="49" y="629" type="line"/>
    </contour>
    <contour>
      <point x="32" y="28" type="line"/>
      <point x="32" y="647" type="line"/>
      <point x="148" y="647" type="line" smooth="yes"/>
      <point x="250" y="647"/>
      <point x="287" y="574"/>
      <point x="287" y="482" type="curve" smooth="yes"/>
      <point x="287" y="192" type="line" smooth="yes"/>
      <point x="287" y="98"/>
      <point x="251" y="28"/>
      <point x="148" y="28" type="curve" smooth="yes"/>
    </contour>
    <contour>
      <point x="148" y="0" type="line" smooth="yes"/>
      <point x="271" y="0"/>
      <point x="315" y="83"/>
      <point x="315" y="192" type="curve" smooth="yes"/>
      <point x="315" y="482" type="line" smooth="yes"/>
      <point x="315" y="590"/>
      <point x="270" y="674"/>
      <point x="148" y="674" type="curve" smooth="yes"/>
      <point x="4" y="674" type="line"/>
      <point x="4" y="0" type="line"/>
    </contour>
    <contour>
      <point x="77" y="73" type="line"/>
      <point x="77" y="602" type="line"/>
      <point x="141" y="602" type="line" smooth="yes"/>
      <point x="216" y="602"/>
      <point x="242" y="547"/>
      <point x="242" y="477" type="curve" smooth="yes"/>
      <point x="242" y="197" type="line" smooth="yes"/>
      <point x="242" y="127"/>
      <point x="216" y="73"/>
      <point x="141" y="73" type="curve" smooth="yes"/>
    </contour>
  </outline>
</glyph>
<glyph name="e" format="1">
  <advance width="323"/>
  <unicode hex="0065"/>
  <outline>
    <contour>
      <point x="244" y="629" type="line"/>
      <point x="47" y="629" type="line"/>
      <point x="47" y="344" type="line"/>
      <point x="179" y="344" type="line"/>
      <point x="179" y="327" type="line"/>
      <point x="47" y="327" type="line"/>
      <point x="47" y="45" type="line"/>
      <point x="244" y="45" type="line"/>
      <point x="244" y="28" type="line"/>
      <point x="30" y="28" type="line"/>
      <point x="29" y="647" type="line"/>
      <point x="244" y="647" type="line"/>
    </contour>
    <contour>
      <point x="272" y="602" type="line"/>
      <point x="272" y="674" type="line"/>
      <point x="2" y="674" type="line"/>
      <point x="3" y="0" type="line"/>
      <point x="272" y="0" type="line"/>
      <point x="272" y="73" type="line"/>
      <point x="74" y="73" type="line"/>
      <point x="74" y="299" type="line"/>
      <point x="206" y="299" type="line"/>
      <point x="206" y="372" type="line"/>
      <point x="74" y="372" type="line"/>
      <point x="74" y="602" type="line"/>
    </contour>
  </outline>
</glyph>
<glyph name="g" format="1">
  <advance width="391"/>
  <unicode hex="0067"/>
  <outline>
    <contour>
      <point x="74" y="21"/>
      <point x="31" y="94"/>
      <point x="31" y="182" type="curve" smooth="yes"/>
      <point x="31" y="493" type="line" smooth="yes"/>
      <point x="31" y="581"/>
      <point x="76" y="653"/>
      <point x="171" y="653" type="curve" smooth="yes"/>
      <point x="266" y="653"/>
      <point x="304" y="579"/>
      <point x="304" y="481" type="curve"/>
      <point x="286" y="481" type="line"/>
      <point x="286" y="559"/>
      <point x="259" y="636"/>
      <point x="171" y="636" type="curve" smooth="yes"/>
      <point x="82" y="636"/>
      <point x="49" y="564"/>
      <point x="49" y="484" type="curve" smooth="yes"/>
      <point x="49" y="182" type="line" smooth="yes"/>
      <point x="49" y="105"/>
      <point x="85" y="39"/>
      <point x="169" y="39" type="curve" smooth="yes"/>
      <point x="251" y="39"/>
      <point x="289" y="108"/>
      <point x="289" y="182" type="curve" smooth="yes"/>
      <point x="289" y="327" type="line"/>
      <point x="180" y="327" type="line"/>
      <point x="180" y="344" type="line"/>
      <point x="307" y="344" type="line"/>
      <point x="307" y="182" type="line" smooth="yes"/>
      <point x="307" y="96"/>
      <point x="264" y="21"/>
      <point x="169" y="21" type="curve" smooth="yes"/>
    </contour>
    <contour>
      <point x="283" y="-6"/>
      <point x="334" y="81"/>
      <point x="334" y="182" type="curve" smooth="yes"/>
      <point x="334" y="372" type="line"/>
      <point x="153" y="372" type="line"/>
      <point x="153" y="299" type="line"/>
      <point x="261" y="299" type="line"/>
      <point x="261" y="182" type="line" smooth="yes"/>
      <point x="261" y="122"/>
      <point x="232" y="66"/>
      <point x="169" y="66" type="curve" smooth="yes"/>
      <point x="104" y="66"/>
      <point x="76" y="119"/>
      <point x="76" y="182" type="curve" smooth="yes"/>
      <point x="76" y="484" type="line" smooth="yes"/>
      <point x="76" y="549"/>
      <point x="102" y="608"/>
      <point x="171" y="608" type="curve" smooth="yes"/>
      <point x="245" y="608"/>
      <point x="258" y="534"/>
      <point x="258" y="457" type="curve"/>
      <point x="331" y="457" type="line"/>
      <point x="331" y="594"/>
      <point x="296" y="681"/>
      <point x="171" y="681" type="curve" smooth="yes"/>
      <point x="56" y="681"/>
      <point x="3" y="597"/>
      <point x="3" y="493" type="curve" smooth="yes"/>
      <point x="3" y="182" type="line" smooth="yes"/>
      <point x="3" y="79"/>
      <point x="54" y="-6"/>
      <point x="169" y="-6" type="curve" smooth="yes"/>
    </contour>
  </outline>
</glyph>
<glyph name="o" format="1">
  <advance width="391"/>
  <unicode hex="006F"/>
  <outline>
    <contour>
      <point x="81" y="635"/>
      <point x="49" y="559"/>
      <point x="49" y="483" type="curve" smooth="yes"/>
      <point x="49" y="191" type="line" smooth="yes"/>
      <point x="49" y="112"/>
      <point x="79" y="40"/>
      <point x="169" y="40" type="curve" smooth="yes"/>
      <point x="259" y="40"/>
      <point x="288" y="108"/>
      <point x="288" y="188" type="curve" smooth="yes"/>
      <point x="288" y="482" type="line" smooth="yes"/>
      <point x="288" y="561"/>
      <point x="260" y="635"/>
      <point x="169" y="635" type="curve" smooth="yes"/>
    </contour>
    <contour>
      <point x="72" y="21"/>
      <point x="31" y="93"/>
      <point x="31" y="183" type="curve" smooth="yes"/>
      <point x="31" y="492" type="line" smooth="yes"/>
      <point x="31" y="579"/>
      <point x="74" y="655"/>
      <point x="169" y="655" type="curve" smooth="yes"/>
      <point x="265" y="655"/>
      <point x="306" y="579"/>
      <point x="306" y="492" type="curve" smooth="yes"/>
      <point x="306" y="183" type="line" smooth="yes"/>
      <point x="306" y="91"/>
      <point x="268" y="21"/>
      <point x="169" y="21" type="curve" smooth="yes"/>
    </contour>
    <contour>
      <point x="287" y="-6"/>
      <point x="334" y="75"/>
      <point x="334" y="183" type="curve" smooth="yes"/>
      <point x="334" y="492" type="line" smooth="yes"/>
      <point x="334" y="594"/>
      <point x="284" y="681"/>
      <point x="169" y="681" type="curve" smooth="yes"/>
      <point x="55" y="681"/>
      <point x="3" y="594"/>
      <point x="3" y="492" type="curve" smooth="yes"/>
      <point x="3" y="183" type="line" smooth="yes"/>
      <point x="3" y="77"/>
      <point x="53" y="-6"/>
      <point x="169" y="-6" type="curve" smooth="yes"/>
    </contour>
    <contour>
      <point x="239" y="607"/>
      <point x="260" y="546"/>
      <point x="260" y="482" type="curve" smooth="yes"/>
      <point x="260" y="188" type="line" smooth="yes"/>
      <point x="260" y="123"/>
      <point x="239" y="67"/>
      <point x="169" y="67" type="curve" smooth="yes"/>
      <point x="100" y="67"/>
      <point x="76" y="127"/>
      <point x="76" y="191" type="curve" smooth="yes"/>
      <point x="76" y="483" type="line" smooth="yes"/>
      <point x="76" y="546"/>
      <point x="101" y="607"/>
      <point x="169" y="607" type="curve" smooth="yes"/>
    </contour>
  </outline>
</glyph>
<glyph name="exclamdown" format="1">
  <advance width="113"/>
  <unicode hex="00A1"/>
  <outline>
    <contour>
      <point x="43" y="648" type="line"/>
      <point x="43" y="618" type="line"/>
      <point x="25" y="618" type="line"/>
      <point x="25" y="648" type="line"/>
    </contour>
    <contour>
      <point x="25" y="535" type="line"/>
      <point x="43" y="535" type="line"/>
      <point x="43" y="29" type="line"/>
      <point x="25" y="29" type="line"/>
    </contour>
    <contour>
      <point x="71" y="1" type="line"/>
      <point x="71" y="562" type="line"/>
      <point x="-3" y="562" type="line"/>
      <point x="-3" y="1" type="line"/>
    </contour>
    <contour>
      <point x="-3" y="591" type="line"/>
      <point x="71" y="591" type="line"/>
      <point x="71" y="675" type="line"/>
      <point x="-3" y="675" type="line"/>
    </contour>
  </outline>
</glyph>
<glyph name="dieresis" format="1">
  <advance width="226"/>
  <unicode hex="00A8"/>
  <outline>
    <contour>
      <point x="193" y="618" type="line"/>
      <point x="175" y="618" type="line"/>
      <point x="175" y="647" type="line"/>
      <point x="193" y="647" type="line"/>
    </contour>
    <contour>
      <point x="48" y="618" type="line"/>
      <point x="29" y="618" type="line"/>
      <point x="29" y="647" type="line"/>
      <point x="48" y="647" type="line"/>
    </contour>
    <contour>
      <point x="75" y="675" type="line"/>
      <point x="2" y="675" type="line"/>
      <point x="2" y="591" type="line"/>
      <point x="75" y="591" type="line"/>
    </contour>
    <contour>
      <point x="221" y="675" type="line"/>
      <point x="147" y="675" type="line"/>
      <point x="147" y="591" type="line"/>
      <point x="221" y="591" type="line"/>
    </contour>
  </outline>
</glyph>
<glyph name="degree" format="1">
  <advance width="232"/>
  <unicode hex="00B0"/>
  <outline>
    <contour>
      <point x="46" y="592"/>
      <point x="67" y="570"/>
      <point x="95" y="570" type="curve" smooth="yes"/>
      <point x="124" y="570"/>
      <point x="148" y="591"/>
      <point x="148" y="620" type="curve" smooth="yes"/>
      <point x="148" y="650"/>
      <point x="124" y="671"/>
      <point x="95" y="671" type="curve" smooth="yes"/>
      <point x="67" y="671"/>
      <point x="46" y="649"/>
      <point x="46" y="620" type="curve" smooth="yes"/>
    </contour>
    <contour>
      <point x="27" y="656"/>
      <point x="58" y="688"/>
      <point x="95" y="688" type="curve" smooth="yes"/>
      <point x="133" y="688"/>
      <point x="165" y="658"/>
      <point x="165" y="619" type="curve" smooth="yes"/>
      <point x="165" y="581"/>
      <point x="133" y="551"/>
      <point x="95" y="551" type="curve" smooth="yes"/>
      <point x="58" y="551"/>
      <point x="27" y="583"/>
      <point x="27" y="619" type="curve" smooth="yes"/>
    </contour>
    <contour>
      <point x="0" y="568"/>
      <point x="42" y="523"/>
      <point x="95" y="523" type="curve" smooth="yes"/>
      <point x="148" y="523"/>
      <point x="193" y="565"/>
      <point x="193" y="619" type="curve" smooth="yes"/>
      <point x="193" y="674"/>
      <point x="148" y="716"/>
      <point x="95" y="716" type="curve" smooth="yes"/>
      <point x="42" y="716"/>
      <point x="0" y="671"/>
      <point x="0" y="619" type="curve" smooth="yes"/>
    </contour>
    <contour>
      <point x="73" y="633"/>
      <point x="83" y="643"/>
      <point x="95" y="643" type="curve" smooth="yes"/>
      <point x="109" y="643"/>
      <point x="120" y="634"/>
      <point x="120" y="620" type="curve" smooth="yes"/>
      <point x="120" y="607"/>
      <point x="109" y="597"/>
      <point x="95" y="597" type="curve" smooth="yes"/>
      <point x="83" y="597"/>
      <point x="73" y="607"/>
      <point x="73" y="620" type="curve" smooth="yes"/>
    </contour>
  </outline>
</glyph>
<glyph name="plusminus" format="1">
  <advance width="346"/>
  <unicode hex="00B1"/>
  <outline>
    <contour>
      <point x="268" y="399" type="line"/>
      <point x="158" y="399" type="line"/>
      <point x="158" y="282" type="line"/>
      <point x="140" y="282" type="line"/>
      <point x="140" y="399" type="line"/>
      <point x="32" y="399" type="line"/>
      <point x="32" y="419" type="line"/>
      <point x="140" y="419" type="line"/>
      <point x="140" y="535" type="line"/>
      <point x="158" y="535" type="line"/>
      <point x="158" y="419" type="line"/>
      <point x="268" y="419" type="line"/>
    </contour>
    <contour>
      <point x="295" y="446" type="line"/>
      <point x="186" y="446" type="line"/>
      <point x="186" y="563" type="line"/>
      <point x="112" y="563" type="line"/>
      <point x="112" y="446" type="line"/>
      <point x="4" y="446" type="line"/>
      <point x="4" y="372" type="line"/>
      <point x="112" y="372" type="line"/>
      <point x="112" y="254" type="line"/>
      <point x="186" y="254" type="line"/>
      <point x="186" y="372" type="line"/>
      <point x="295" y="372" type="line"/>
    </contour>
    <contour>
      <point x="259" y="169" type="line"/>
      <point x="33" y="169" type="line"/>
      <point x="33" y="186" type="line"/>
      <point x="259" y="186" type="line"/>
    </contour>
    <contour>
      <point x="286" y="141" type="line"/>
      <point x="286" y="214" type="line"/>
      <point x="5" y="214" type="line"/>
      <point x="5" y="141" type="line"/>
    </contour>
  </outline>
</glyph>
<glyph name="periodcentered" format="1">
  <advance width="155"/>
  <unicode hex="00B7"/>
  <outline>
    <contour>
      <point x="61" y="340"/>
      <point x="68" y="347"/>
      <point x="76" y="347" type="curve" smooth="yes"/>
      <point x="84" y="347"/>
      <point x="90" y="339"/>
      <point x="90" y="332" type="curve" smooth="yes"/>
      <point x="90" y="324"/>
      <point x="84" y="317"/>
      <point x="76" y="317" type="curve" smooth="yes"/>
      <point x="68" y="317"/>
      <point x="61" y="323"/>
      <point x="61" y="332" type="curve" smooth="yes"/>
    </contour>
    <contour>
      <point x="33" y="308"/>
      <point x="53" y="289"/>
      <point x="76" y="289" type="curve" smooth="yes"/>
      <point x="101" y="289"/>
      <point x="117" y="310"/>
      <point x="117" y="332" type="curve" smooth="yes"/>
      <point x="117" y="352"/>
      <point x="101" y="375"/>
      <point x="76" y="375" type="curve" smooth="yes"/>
      <point x="53" y="375"/>
      <point x="33" y="354"/>
      <point x="33" y="332" type="curve" smooth="yes"/>
    </contour>
  </outline>
</glyph>
<glyph name="ordmasculine" format="1">
  <advance width="232"/>
  <unicode hex="00BA"/>
  <outline>
    <contour>
      <point x="45" y="579"/>
      <point x="67" y="558"/>
      <point x="95" y="558" type="curve" smooth="yes"/>
      <point x="123" y="558"/>
      <point x="145" y="579"/>
      <point x="145" y="607" type="curve" smooth="yes"/>
      <point x="145" y="635"/>
      <point x="124" y="658"/>
      <point x="95" y="658" type="curve" smooth="yes"/>
      <point x="67" y="658"/>
      <point x="45" y="635"/>
      <point x="45" y="607" type="curve" smooth="yes"/>
    </contour>
    <contour>
      <point x="28" y="644"/>
      <point x="59" y="674"/>
      <point x="95" y="674" type="curve" smooth="yes"/>
      <point x="132" y="674"/>
      <point x="163" y="644"/>
      <point x="163" y="607" type="curve" smooth="yes"/>
      <point x="163" y="571"/>
      <point x="132" y="540"/>
      <point x="95" y="540" type="curve" smooth="yes"/>
      <point x="59" y="540"/>
      <point x="28" y="571"/>
      <point x="28" y="607" type="curve" smooth="yes"/>
    </contour>
    <contour>
      <point x="1" y="556"/>
      <point x="44" y="513"/>
      <point x="95" y="513" type="curve" smooth="yes"/>
      <point x="146" y="513"/>
      <point x="190" y="556"/>
      <point x="190" y="607" type="curve" smooth="yes"/>
      <point x="190" y="658"/>
      <point x="146" y="701"/>
      <point x="95" y="701" type="curve" smooth="yes"/>
      <point x="44" y="701"/>
      <point x="1" y="658"/>
      <point x="1" y="607" type="curve" smooth="yes"/>
    </contour>
    <contour>
      <point x="72" y="621"/>
      <point x="82" y="631"/>
      <point x="95" y="631" type="curve" smooth="yes"/>
      <point x="109" y="631"/>
      <point x="118" y="621"/>
      <point x="118" y="607" type="curve" smooth="yes"/>
      <point x="118" y="595"/>
      <point x="108" y="585"/>
      <point x="95" y="585" type="curve" smooth="yes"/>
      <point x="83" y="585"/>
      <point x="72" y="595"/>
      <point x="72" y="607" type="curve" smooth="yes"/>
    </contour>
  </outline>
</glyph>
<glyph name="guillemotright" format="1">
  <advance width="509"/>
  <unicode hex="00BB"/>
  <outline>
    <contour>
      <point x="233" y="647" type="line"/>
      <point x="477" y="337" type="line"/>
      <point x="233" y="28" type="line"/>
      <point x="213" y="28" type="line"/>
      <point x="457" y="337" type="line"/>
      <point x="375" y="440"/>
      <point x="294" y="543"/>
      <point x="213" y="647" type="curve"/>
    </contour>
    <contour>
      <point x="70" y="647" type="line"/>
      <point x="315" y="337" type="line"/>
      <point x="70" y="28" type="line"/>
      <point x="49" y="28" type="line"/>
      <point x="293" y="337" type="line"/>
      <point x="212" y="440"/>
      <point x="130" y="543"/>
      <point x="49" y="647" type="curve"/>
    </contour>
    <contour>
      <point x="-7" y="674" type="line"/>
      <point x="69" y="576"/>
      <point x="177" y="439"/>
      <point x="258" y="337" type="curve"/>
      <point x="-9" y="0" type="line"/>
      <point x="84" y="0" type="line"/>
      <point x="350" y="337" type="line"/>
      <point x="84" y="674" type="line"/>
    </contour>
    <contour>
      <point x="157" y="674" type="line"/>
      <point x="233" y="576"/>
      <point x="340" y="439"/>
      <point x="421" y="337" type="curve"/>
      <point x="155" y="0" type="line"/>
      <point x="247" y="0" type="line"/>
      <point x="513" y="337" type="line"/>
      <point x="247" y="674" type="line"/>
    </contour>
  </outline>
</glyph>
<glyph name="Ccedilla" format="1">
  <advance width="381"/>
  <unicode hex="00C7"/>
  <outline>
    <contour>
      <point x="181" y="12" type="line"/>
      <point x="181" y="-23" type="line"/>
      <point x="209" y="-24"/>
      <point x="224" y="-40"/>
      <point x="224" y="-55" type="curve" smooth="yes"/>
      <point x="224" y="-80"/>
      <point x="196" y="-104"/>
      <point x="176" y="-113" type="curve"/>
      <point x="166" y="-95" type="line"/>
      <point x="177" y="-89"/>
      <point x="202" y="-73"/>
      <point x="200" y="-57" type="curve" smooth="yes"/>
      <point x="198" y="-41"/>
      <point x="178" y="-40"/>
      <point x="161" y="-40" type="curve"/>
      <point x="161" y="-36"/>
      <point x="161" y="-39"/>
      <point x="161" y="12" type="curve" smooth="yes"/>
      <point x="161" y="21" type="line"/>
      <point x="161" y="21" type="line" smooth="yes"/>
      <point x="75" y="21"/>
      <point x="29" y="92"/>
      <point x="29" y="183" type="curve" smooth="yes"/>
      <point x="29" y="492" type="line" smooth="yes"/>
      <point x="29" y="583"/>
      <point x="71" y="653"/>
      <point x="168" y="653" type="curve" smooth="yes"/>
      <point x="266" y="653"/>
      <point x="304" y="583"/>
      <point x="304" y="472" type="curve"/>
      <point x="286" y="472" type="line"/>
      <point x="286" y="555"/>
      <point x="269" y="636"/>
      <point x="168" y="636" type="curve" smooth="yes"/>
      <point x="83" y="636"/>
      <point x="47" y="568"/>
      <point x="47" y="492" type="curve" smooth="yes"/>
      <point x="47" y="183" type="line" smooth="yes"/>
      <point x="47" y="107"/>
      <point x="82" y="39"/>
      <point x="167" y="39" type="curve" smooth="yes"/>
      <point x="268" y="39"/>
      <point x="286" y="121"/>
      <point x="286" y="203" type="curve"/>
      <point x="304" y="203" type="line"/>
      <point x="304" y="103"/>
      <point x="281" y="29"/>
      <point x="181" y="21" type="curve"/>
    </contour>
    <contour>
      <point x="171" y="-77"/>
      <point x="139" y="-88"/>
      <point x="140" y="-88" type="curve"/>
      <point x="166" y="-139" type="line"/>
      <point x="204" y="-124"/>
      <point x="245" y="-92"/>
      <point x="245" y="-56" type="curve" smooth="yes"/>
      <point x="245" y="-28"/>
      <point x="224" y="-10"/>
      <point x="201" y="-3" type="curve"/>
      <point x="319" y="12"/>
      <point x="332" y="115"/>
      <point x="332" y="231" type="curve"/>
      <point x="258" y="231" type="line"/>
      <point x="258" y="137"/>
      <point x="246" y="66"/>
      <point x="167" y="66" type="curve" smooth="yes"/>
      <point x="101" y="66"/>
      <point x="75" y="121"/>
      <point x="75" y="183" type="curve" smooth="yes"/>
      <point x="75" y="492" type="line" smooth="yes"/>
      <point x="75" y="554"/>
      <point x="102" y="608"/>
      <point x="168" y="608" type="curve" smooth="yes"/>
      <point x="254" y="608"/>
      <point x="258" y="527"/>
      <point x="258" y="444" type="curve"/>
      <point x="332" y="444" type="line"/>
      <point x="332" y="599"/>
      <point x="302" y="681"/>
      <point x="168" y="681" type="curve" smooth="yes"/>
      <point x="52" y="681"/>
      <point x="1" y="599"/>
      <point x="1" y="492" type="curve" smooth="yes"/>
      <point x="1" y="183" type="line" smooth="yes"/>
      <point x="1" y="84"/>
      <point x="43" y="6"/>
      <point x="141" y="-4" type="curve"/>
      <point x="141" y="-58" type="line"/>
      <point x="151" y="-59"/>
      <point x="171" y="-60"/>
      <point x="171" y="-65" type="curve" smooth="yes"/>
    </contour>
  </outline>
</glyph>
<glyph name="Iacute" format="1">
  <advance width="144"/>
  <unicode hex="00CD"/>
  <outline>
    <contour>
      <point x="34" y="28" type="line"/>
      <point x="34" y="647" type="line"/>
      <point x="53" y="647" type="line"/>
      <point x="53" y="28" type="line"/>
    </contour>
    <contour>
      <point x="80" y="0" type="line"/>
      <point x="80" y="674" type="line"/>
      <point x="7" y="674" type="line"/>
      <point x="7" y="0" type="line"/>
    </contour>
    <contour>
      <point x="11" y="742" type="line"/>
      <point x="53" y="817" type="line"/>
      <point x="72" y="817" type="line"/>
      <point x="24" y="742" type="line"/>
    </contour>
    <contour>
      <point x="38" y="715" type="line"/>
      <point x="122" y="845" type="line"/>
      <point x="37" y="845" type="line"/>
      <point x="-36" y="715" type="line"/>
    </contour>
  </outline>
</glyph>
<glyph name="Eth" format="1">
  <advance width="375"/>
  <unicode hex="00D0"/>
  <outline>
    <contour>
      <point x="146" y="0" type="line" smooth="yes"/>
      <point x="269" y="0"/>
      <point x="313" y="83"/>
      <point x="313" y="192" type="curve" smooth="yes"/>
      <point x="313" y="482" type="line" smooth="yes"/>
      <point x="313" y="590"/>
      <point x="268" y="674"/>
      <point x="146" y="674" type="curve" smooth="yes"/>
      <point x="2" y="674" type="line"/>
      <point x="2" y="373" type="line"/>
      <point x="-86" y="373" type="line"/>
      <point x="-86" y="300" type="line"/>
      <point x="2" y="300" type="line"/>
      <point x="2" y="0" type="line"/>
    </contour>
    <contour>
      <point x="75" y="73" type="line"/>
      <point x="75" y="300" type="line"/>
      <point x="155" y="300" type="line"/>
      <point x="155" y="373" type="line"/>
      <point x="75" y="373" type="line"/>
      <point x="75" y="602" type="line"/>
      <point x="140" y="602" type="line" smooth="yes"/>
      <point x="214" y="602"/>
      <point x="240" y="546"/>
      <point x="240" y="477" type="curve" smooth="yes"/>
      <point x="240" y="197" type="line" smooth="yes"/>
      <point x="240" y="128"/>
      <point x="214" y="73"/>
      <point x="140" y="73" type="curve" smooth="yes"/>
    </contour>
    <contour>
      <point x="30" y="28" type="line"/>
      <point x="30" y="328" type="line"/>
      <point x="-59" y="328" type="line"/>
      <point x="-59" y="345" type="line"/>
      <point x="30" y="345" type="line"/>
      <point x="30" y="647" type="line"/>
      <point x="146" y="647" type="line" smooth="yes"/>
      <point x="248" y="647"/>
      <point x="286" y="574"/>
      <point x="286" y="482" type="curve" smooth="yes"/>
      <point x="286" y="192" type="line" smooth="yes"/>
      <point x="286" y="98"/>
      <point x="249" y="28"/>
      <point x="146" y="28" type="curve" smooth="yes"/>
    </contour>
    <contour>
      <point x="48" y="45" type="line"/>
      <point x="140" y="45" type="line" smooth="yes"/>
      <point x="234" y="45"/>
      <point x="267" y="112"/>
      <point x="267" y="197" type="curve" smooth="yes"/>
      <point x="267" y="477" type="line" smooth="yes"/>
      <point x="267" y="562"/>
      <point x="234" y="629"/>
      <point x="140" y="629" type="curve" smooth="yes"/>
      <point x="48" y="629" type="line"/>
      <point x="48" y="345" type="line"/>
      <point x="127" y="345" type="line"/>
      <point x="127" y="328" type="line"/>
      <point x="48" y="328" type="line"/>
    </contour>
  </outline>
</glyph>
<glyph name="multiply" format="1">
  <advance width="377"/>
  <unicode hex="00D7"/>
  <outline>
    <contour>
      <point x="86" y="441" type="line"/>
      <point x="179" y="348" type="line"/>
      <point x="272" y="442" type="line"/>
      <point x="285" y="429" type="line"/>
      <point x="192" y="335" type="line"/>
      <point x="285" y="242" type="line"/>
      <point x="272" y="229" type="line"/>
      <point x="179" y="322" type="line"/>
      <point x="86" y="230" type="line"/>
      <point x="71" y="242" type="line"/>
      <point x="165" y="335" type="line"/>
      <point x="71" y="429" type="line"/>
    </contour>
    <contour>
      <point x="31" y="431" type="line"/>
      <point x="126" y="335" type="line"/>
      <point x="30" y="239" type="line"/>
      <point x="88" y="193" type="line"/>
      <point x="179" y="284" type="line"/>
      <point x="272" y="190" type="line"/>
      <point x="324" y="242" type="line"/>
      <point x="230" y="335" type="line"/>
      <point x="324" y="429" type="line"/>
      <point x="272" y="480" type="line"/>
      <point x="179" y="387" type="line"/>
      <point x="88" y="478" type="line"/>
    </contour>
  </outline>
</glyph>
<glyph name="Yacute" format="1">
  <advance width="353"/>
  <unicode hex="00DD"/>
  <outline>
    <contour>
      <point x="295" y="647" type="line"/>
      <point x="168" y="312" type="line"/>
      <point x="168" y="28" type="line"/>
      <point x="149" y="28" type="line"/>
      <point x="149" y="312" type="line"/>
      <point x="107" y="424"/>
      <point x="63" y="534"/>
      <point x="23" y="647" type="curve"/>
      <point x="42" y="647" type="line"/>
      <point x="159" y="337" type="line"/>
      <point x="276" y="647" type="line"/>
    </contour>
    <contour>
      <point x="257" y="674" type="line"/>
      <point x="227" y="592"/>
      <point x="192" y="502"/>
      <point x="159" y="416" type="curve"/>
      <point x="61" y="674" type="line"/>
      <point x="-17" y="674" type="line"/>
      <point x="5" y="613"/>
      <point x="43" y="512"/>
      <point x="121" y="307" type="curve"/>
      <point x="121" y="0" type="line"/>
      <point x="195" y="0" type="line"/>
      <point x="195" y="307" type="line"/>
      <point x="335" y="674" type="line"/>
    </contour>
    <contour>
      <point x="140" y="734" type="line"/>
      <point x="182" y="809" type="line"/>
      <point x="201" y="809" type="line"/>
      <point x="153" y="734" type="line"/>
    </contour>
    <contour>
      <point x="167" y="707" type="line"/>
      <point x="251" y="837" type="line"/>
      <point x="166" y="837" type="line"/>
      <point x="93" y="707" type="line"/>
    </contour>
  </outline>
</glyph>
<glyph name="atilde" format="1">
  <advance width="435"/>
  <unicode hex="00E3"/>
  <outline>
    <contour>
      <point x="193" y="601" type="line"/>
      <point x="110" y="238" type="line"/>
      <point x="276" y="238" type="line"/>
    </contour>
    <contour>
      <point x="63" y="28" type="line"/>
      <point x="44" y="28" type="line"/>
      <point x="186" y="647" type="line"/>
      <point x="200" y="647" type="line"/>
      <point x="341" y="28" type="line"/>
      <point x="323" y="28" type="line"/>
      <point x="280" y="220" type="line"/>
      <point x="106" y="220" type="line"/>
    </contour>
    <contour>
      <point x="85" y="0" type="line"/>
      <point x="130" y="193" type="line"/>
      <point x="258" y="193" type="line"/>
      <point x="300" y="0" type="line"/>
      <point x="375" y="0" type="line"/>
      <point x="222" y="674" type="line"/>
      <point x="164" y="674" type="line"/>
      <point x="10" y="0" type="line"/>
    </contour>
    <contour>
      <point x="193" y="479" type="line"/>
      <point x="241" y="265" type="line"/>
      <point x="145" y="265" type="line"/>
    </contour>
    <contour>
      <point x="313" y="757" type="line"/>
      <point x="298" y="751"/>
      <point x="281" y="745"/>
      <point x="265" y="745" type="curve" smooth="yes"/>
      <point x="218" y="745"/>
      <point x="184" y="784"/>
      <point x="141" y="784" type="curve" smooth="yes"/>
      <point x="121" y="784"/>
      <point x="104" y="775"/>
      <point x="90" y="761" type="curve"/>
      <point x="75" y="776" type="line"/>
      <point x="93" y="789"/>
      <point x="115" y="804"/>
      <point x="139" y="804" type="curve" smooth="yes"/>
      <point x="188" y="804"/>
      <point x="224" y="764"/>
      <point x="267" y="764" type="curve" smooth="yes"/>
      <point x="276" y="764"/>
      <point x="288" y="770"/>
      <point x="297" y="773" type="curve"/>
    </contour>
    <contour>
      <point x="303" y="808" type="line"/>
      <point x="289" y="799" type="line"/>
      <point x="281" y="795"/>
      <point x="271" y="792"/>
      <point x="267" y="792" type="curve" smooth="yes"/>
      <point x="252" y="792"/>
      <point x="236" y="800"/>
      <point x="218" y="808" type="curve"/>
      <point x="219" y="808" type="line"/>
      <point x="195" y="819"/>
      <point x="170" y="831"/>
      <point x="139" y="831" type="curve" smooth="yes"/>
      <point x="107" y="831"/>
      <point x="67" y="804"/>
      <point x="33" y="780" type="curve"/>
      <point x="90" y="723" type="line"/>
      <point x="111" y="743"/>
      <point x="129" y="757"/>
      <point x="141" y="757" type="curve" smooth="yes"/>
      <point x="156" y="757"/>
      <point x="171" y="748"/>
      <point x="188" y="740" type="curve"/>
      <point x="211" y="728"/>
      <point x="234" y="717"/>
      <point x="265" y="717" type="curve" smooth="yes"/>
      <point x="286" y="717"/>
      <point x="325" y="732"/>
      <point x="359" y="745" type="curve"/>
    </contour>
  </outline>
</glyph>
<glyph name="adieresis" format="1">
  <advance width="435"/>
  <unicode hex="00E4"/>
  <outline>
    <contour>
      <point x="193" y="601" type="line"/>
      <point x="110" y="238" type="line"/>
      <point x="276" y="238" type="line"/>
    </contour>
    <contour>
      <point x="63" y="28" type="line"/>
      <point x="44" y="28" type="line"/>
      <point x="186" y="647" type="line"/>
      <point x="200" y="647" type="line"/>
      <point x="341" y="28" type="line"/>
      <point x="323" y="28" type="line"/>
      <point x="280" y="220" type="line"/>
      <point x="106" y="220" type="line"/>
    </contour>
    <contour>
      <point x="85" y="0" type="line"/>
      <point x="130" y="193" type="line"/>
      <point x="258" y="193" type="line"/>
      <point x="300" y="0" type="line"/>
      <point x="375" y="0" type="line"/>
      <point x="222" y="674" type="line"/>
      <point x="164" y="674" type="line"/>
      <point x="10" y="0" type="line"/>
    </contour>
    <contour>
      <point x="193" y="479" type="line"/>
      <point x="241" y="265" type="line"/>
      <point x="145" y="265" type="line"/>
    </contour>
    <contour>
      <point x="274" y="745" type="line"/>
      <point x="256" y="745" type="line"/>
      <point x="256" y="774" type="line"/>
      <point x="274" y="774" type="line"/>
    </contour>
    <contour>
      <point x="129" y="745" type="line"/>
      <point x="110" y="745" type="line"/>
      <point x="110" y="774" type="line"/>
      <point x="129" y="774" type="line"/>
    </contour>
    <contour>
      <point x="156" y="802" type="line"/>
      <point x="83" y="802" type="line"/>
      <point x="83" y="718" type="line"/>
      <point x="156" y="718" type="line"/>
    </contour>
    <contour>
      <point x="302" y="802" type="line"/>
      <point x="228" y="802" type="line"/>
      <point x="228" y="718" type="line"/>
      <point x="302" y="718" type="line"/>
    </contour>
  </outline>
</glyph>
<glyph name="egrave" format="1">
  <advance width="323"/>
  <unicode hex="00E8"/>
  <outline>
    <contour>
      <point x="47" y="629" type="line"/>
      <point x="47" y="344" type="line"/>
      <point x="179" y="344" type="line"/>
      <point x="179" y="327" type="line"/>
      <point x="47" y="327" type="line"/>
      <point x="47" y="45" type="line"/>
      <point x="244" y="45" type="line"/>
      <point x="244" y="28" type="line"/>
      <point x="30" y="28" type="line"/>
      <point x="29" y="647" type="line"/>
      <point x="244" y="647" type="line"/>
      <point x="244" y="629" type="line"/>
    </contour>
    <contour>
      <point x="272" y="602" type="line"/>
      <point x="272" y="674" type="line"/>
      <point x="2" y="674" type="line"/>
      <point x="3" y="0" type="line"/>
      <point x="272" y="0" type="line"/>
      <point x="272" y="73" type="line"/>
      <point x="74" y="73" type="line"/>
      <point x="74" y="299" type="line"/>
      <point x="206" y="299" type="line"/>
      <point x="206" y="372" type="line"/>
      <point x="74" y="372" type="line"/>
      <point x="74" y="602" type="line"/>
    </contour>
    <contour>
      <point x="151" y="736" type="line"/>
      <point x="101" y="812" type="line"/>
      <point x="122" y="812" type="line"/>
      <point x="169" y="736" type="line"/>
    </contour>
    <contour>
      <point x="218" y="709" type="line"/>
      <point x="137" y="840" type="line"/>
      <point x="49" y="840" type="line"/>
      <point x="137" y="709" type="line"/>
    </contour>
  </outline>
</glyph>
<glyph name="edieresis" format="1">
  <advance width="323"/>
  <unicode hex="00EB"/>
  <outline>
    <contour>
      <point x="47" y="629" type="line"/>
      <point x="47" y="344" type="line"/>
      <point x="179" y="344" type="line"/>
      <point x="179" y="327" type="line"/>
      <point x="47" y="327" type="line"/>
      <point x="47" y="45" type="line"/>
      <point x="244" y="45" type="line"/>
      <point x="244" y="28" type="line"/>
      <point x="30" y="28" type="line"/>
      <point x="29" y="647" type="line"/>
      <point x="244" y="647" type="line"/>
      <point x="244" y="629" type="line"/>
    </contour>
    <contour>
      <point x="272" y="602" type="line"/>
      <point x="272" y="674" type="line"/>
      <point x="2" y="674" type="line"/>
      <point x="3" y="0" type="line"/>
      <point x="272" y="0" type="line"/>
      <point x="272" y="73" type="line"/>
      <point x="74" y="73" type="line"/>
      <point x="74" y="299" type="line"/>
      <point x="206" y="299" type="line"/>
      <point x="206" y="372" type="line"/>
      <point x="74" y="372" type="line"/>
      <point x="74" y="602" type="line"/>
    </contour>
    <contour>
      <point x="221" y="748" type="line"/>
      <point x="203" y="748" type="line"/>
      <point x="203" y="777" type="line"/>
      <point x="221" y="777" type="line"/>
    </contour>
    <contour>
      <point x="76" y="748" type="line"/>
      <point x="57" y="748" type="line"/>
      <point x="57" y="777" type="line"/>
      <point x="76" y="777" type="line"/>
    </contour>
    <contour>
      <point x="103" y="805" type="line"/>
      <point x="30" y="805" type="line"/>
      <point x="30" y="721" type="line"/>
      <point x="103" y="721" type="line"/>
    </contour>
    <contour>
      <point x="249" y="805" type="line"/>
      <point x="175" y="805" type="line"/>
      <point x="175" y="721" type="line"/>
      <point x="249" y="721" type="line"/>
    </contour>
  </outline>
</glyph>
<glyph name="ocircumflex" format="1">
  <advance width="391"/>
  <unicode hex="00F4"/>
  <outline>
    <contour>
      <point x="81" y="635"/>
      <point x="49" y="559"/>
      <point x="49" y="483" type="curve" smooth="yes"/>
      <point x="49" y="191" type="line" smooth="yes"/>
      <point x="49" y="112"/>
      <point x="79" y="40"/>
      <point x="169" y="40" type="curve" smooth="yes"/>
      <point x="259" y="40"/>
      <point x="288" y="108"/>
      <point x="288" y="188" type="curve" smooth="yes"/>
      <point x="288" y="482" type="line" smooth="yes"/>
      <point x="288" y="561"/>
      <point x="260" y="635"/>
      <point x="169" y="635" type="curve" smooth="yes"/>
    </contour>
    <contour>
      <point x="72" y="21"/>
      <point x="31" y="93"/>
      <point x="31" y="183" type="curve" smooth="yes"/>
      <point x="31" y="492" type="line" smooth="yes"/>
      <point x="31" y="579"/>
      <point x="74" y="655"/>
      <point x="169" y="655" type="curve" smooth="yes"/>
      <point x="265" y="655"/>
      <point x="306" y="579"/>
      <point x="306" y="492" type="curve" smooth="yes"/>
      <point x="306" y="183" type="line" smooth="yes"/>
      <point x="306" y="91"/>
      <point x="268" y="21"/>
      <point x="169" y="21" type="curve" smooth="yes"/>
    </contour>
    <contour>
      <point x="287" y="-6"/>
      <point x="334" y="75"/>
      <point x="334" y="183" type="curve" smooth="yes"/>
      <point x="334" y="492" type="line" smooth="yes"/>
      <point x="334" y="594"/>
      <point x="284" y="681"/>
      <point x="169" y="681" type="curve" smooth="yes"/>
      <point x="55" y="681"/>
      <point x="3" y="594"/>
      <point x="3" y="492" type="curve" smooth="yes"/>
      <point x="3" y="183" type="line" smooth="yes"/>
      <point x="3" y="77"/>
      <point x="53" y="-6"/>
      <point x="169" y="-6" type="curve" smooth="yes"/>
    </contour>
    <contour>
      <point x="239" y="607"/>
      <point x="260" y="546"/>
      <point x="260" y="482" type="curve" smooth="yes"/>
      <point x="260" y="188" type="line" smooth="yes"/>
      <point x="260" y="123"/>
      <point x="239" y="67"/>
      <point x="169" y="67" type="curve" smooth="yes"/>
      <point x="100" y="67"/>
      <point x="76" y="127"/>
      <point x="76" y="191" type="curve" smooth="yes"/>
      <point x="76" y="483" type="line" smooth="yes"/>
      <point x="76" y="546"/>
      <point x="101" y="607"/>
      <point x="169" y="607" type="curve" smooth="yes"/>
    </contour>
    <contour>
      <point x="106" y="728" type="line"/>
      <point x="149" y="812" type="line"/>
      <point x="178" y="812" type="line"/>
      <point x="221" y="728" type="line"/>
      <point x="208" y="728" type="line"/>
      <point x="166" y="793" type="line"/>
      <point x="160" y="793" type="line"/>
      <point x="121" y="728" type="line"/>
    </contour>
    <contour>
      <point x="136" y="700" type="line"/>
      <point x="164" y="744" type="line"/>
      <point x="195" y="700" type="line"/>
      <point x="269" y="700" type="line"/>
      <point x="195" y="840" type="line"/>
      <point x="132" y="840" type="line"/>
      <point x="62" y="700" type="line"/>
    </contour>
  </outline>
</glyph>
<glyph name="otilde" format="1">
  <advance width="391"/>
  <unicode hex="00F5"/>
  <outline>
    <contour>
      <point x="81" y="635"/>
      <point x="49" y="559"/>
      <point x="49" y="483" type="curve" smooth="yes"/>
      <point x="49" y="191" type="line" smooth="yes"/>
      <point x="49" y="112"/>
      <point x="79" y="40"/>
      <point x="169" y="40" type="curve" smooth="yes"/>
      <point x="259" y="40"/>
      <point x="288" y="108"/>
      <point x="288" y="188" type="curve" smooth="yes"/>
      <point x="288" y="482" type="line" smooth="yes"/>
      <point x="288" y="561"/>
      <point x="260" y="635"/>
      <point x="169" y="635" type="curve" smooth="yes"/>
    </contour>
    <contour>
      <point x="72" y="21"/>
      <point x="31" y="93"/>
      <point x="31" y="183" type="curve" smooth="yes"/>
      <point x="31" y="492" type="line" smooth="yes"/>
      <point x="31" y="579"/>
      <point x="74" y="655"/>
      <point x="169" y="655" type="curve" smooth="yes"/>
      <point x="265" y="655"/>
      <point x="306" y="579"/>
      <point x="306" y="492" type="curve" smooth="yes"/>
      <point x="306" y="183" type="line" smooth="yes"/>
      <point x="306" y="91"/>
      <point x="268" y="21"/>
      <point x="169" y="21" type="curve" smooth="yes"/>
    </contour>
    <contour>
      <point x="287" y="-6"/>
      <point x="334" y="75"/>
      <point x="334" y="183" type="curve" smooth="yes"/>
      <point x="334" y="492" type="line" smooth="yes"/>
      <point x="334" y="594"/>
      <point x="284" y="681"/>
      <point x="169" y="681" type="curve" smooth="yes"/>
      <point x="55" y="681"/>
      <point x="3" y="594"/>
      <point x="3" y="492" type="curve" smooth="yes"/>
      <point x="3" y="183" type="line" smooth="yes"/>
      <point x="3" y="77"/>
      <point x="53" y="-6"/>
      <point x="169" y="-6" type="curve" smooth="yes"/>
    </contour>
    <contour>
      <point x="239" y="607"/>
      <point x="260" y="546"/>
      <point x="260" y="482" type="curve" smooth="yes"/>
      <point x="260" y="188" type="line" smooth="yes"/>
      <point x="260" y="123"/>
      <point x="239" y="67"/>
      <point x="169" y="67" type="curve" smooth="yes"/>
      <point x="100" y="67"/>
      <point x="76" y="127"/>
      <point x="76" y="191" type="curve" smooth="yes"/>
      <point x="76" y="483" type="line" smooth="yes"/>
      <point x="76" y="546"/>
      <point x="101" y="607"/>
      <point x="169" y="607" type="curve" smooth="yes"/>
    </contour>
    <contour>
      <point x="280" y="750" type="line"/>
      <point x="265" y="744"/>
      <point x="248" y="738"/>
      <point x="232" y="738" type="curve" smooth="yes"/>
      <point x="185" y="738"/>
      <point x="151" y="777"/>
      <point x="108" y="777" type="curve" smooth="yes"/>
      <point x="88" y="777"/>
      <point x="71" y="768"/>
      <point x="57" y="754" type="curve"/>
      <point x="42" y="769" type="line"/>
      <point x="60" y="782"/>
      <point x="82" y="797"/>
      <point x="106" y="797" type="curve" smooth="yes"/>
      <point x="155" y="797"/>
      <point x="191" y="757"/>
      <point x="234" y="757" type="curve" smooth="yes"/>
      <point x="243" y="757"/>
      <point x="255" y="763"/>
      <point x="264" y="766" type="curve"/>
    </contour>
    <contour>
      <point x="270" y="801" type="line"/>
      <point x="256" y="792" type="line"/>
      <point x="248" y="788"/>
      <point x="238" y="785"/>
      <point x="234" y="785" type="curve" smooth="yes"/>
      <point x="219" y="785"/>
      <point x="203" y="793"/>
      <point x="185" y="801" type="curve"/>
      <point x="186" y="801" type="line"/>
      <point x="162" y="812"/>
      <point x="137" y="824"/>
      <point x="106" y="824" type="curve" smooth="yes"/>
      <point x="74" y="824"/>
      <point x="34" y="797"/>
      <point x="0" y="773" type="curve"/>
      <point x="57" y="716" type="line"/>
      <point x="78" y="736"/>
      <point x="96" y="750"/>
      <point x="108" y="750" type="curve" smooth="yes"/>
      <point x="123" y="750"/>
      <point x="138" y="741"/>
      <point x="155" y="733" type="curve"/>
      <point x="178" y="721"/>
      <point x="201" y="710"/>
      <point x="232" y="710" type="curve" smooth="yes"/>
      <point x="253" y="710"/>
      <point x="292" y="725"/>
      <point x="326" y="738" type="curve"/>
    </contour>
  </outline>
</glyph>
<glyph name="Ydieresis" format="1">
  <advance width="353"/>
  <unicode hex="0178"/>
  <outline>
    <contour>
      <point x="295" y="647" type="line"/>
      <point x="168" y="312" type="line"/>
      <point x="168" y="28" type="line"/>
      <point x="149" y="28" type="line"/>
      <point x="149" y="312" type="line"/>
      <point x="107" y="424"/>
      <point x="63" y="534"/>
      <point x="23" y="647" type="curve"/>
      <point x="42" y="647" type="line"/>
      <point x="159" y="337" type="line"/>
      <point x="276" y="647" type="line"/>
    </contour>
    <contour>
      <point x="257" y="674" type="line"/>
      <point x="227" y="592"/>
      <point x="192" y="502"/>
      <point x="159" y="416" type="curve"/>
      <point x="61" y="674" type="line"/>
      <point x="-17" y="674" type="line"/>
      <point x="5" y="613"/>
      <point x="43" y="512"/>
      <point x="121" y="307" type="curve"/>
      <point x="121" y="0" type="line"/>
      <point x="195" y="0" type="line"/>
      <point x="195" y="307" type="line"/>
      <point x="335" y="674" type="line"/>
    </contour>
    <contour>
      <point x="244" y="731" type="line"/>
      <point x="226" y="731" type="line"/>
      <point x="226" y="760" type="line"/>
      <point x="244" y="760" type="line"/>
    </contour>
    <contour>
      <point x="99" y="731" type="line"/>
      <point x="80" y="731" type="line"/>
      <point x="80" y="760" type="line"/>
      <point x="99" y="760" type="line"/>
    </contour>
    <contour>
      <point x="126" y="788" type="line"/>
      <point x="53" y="788" type="line"/>
      <point x="53" y="704" type="line"/>
      <point x="126" y="704" type="line"/>
    </contour>
    <contour>
      <point x="272" y="788" type="line"/>
      <point x="198" y="788" type="line"/>
      <point x="198" y="704" type="line"/>
      <point x="272" y="704" type="line"/>
    </contour>
  </outline>
</glyph>
<glyph name="Zcaron" format="1">
  <advance width="355"/>
  <unicode hex="017D"/>
  <outline>
    <contour>
      <point x="115" y="797" type="line"/>
      <point x="154" y="732" type="line"/>
      <point x="162" y="732" type="line"/>
      <point x="202" y="797" type="line"/>
      <point x="214" y="797" type="line"/>
      <point x="172" y="713" type="line"/>
      <point x="143" y="713" type="line"/>
      <point x="101" y="797" type="line"/>
    </contour>
    <contour>
      <point x="45" y="46" type="line"/>
      <point x="282" y="46" type="line"/>
      <point x="282" y="28" type="line"/>
      <point x="25" y="28" type="line"/>
      <point x="25" y="51" type="line"/>
      <point x="260" y="627" type="line"/>
      <point x="260" y="628" type="line"/>
      <point x="40" y="628" type="line"/>
      <point x="40" y="647" type="line"/>
      <point x="279" y="647" type="line"/>
      <point x="279" y="624" type="line"/>
      <point x="45" y="48" type="line"/>
    </contour>
    <contour>
      <point x="306" y="618" type="line"/>
      <point x="306" y="674" type="line"/>
      <point x="12" y="674" type="line"/>
      <point x="12" y="601" type="line"/>
      <point x="220" y="601" type="line"/>
      <point x="-2" y="57" type="line"/>
      <point x="-2" y="0" type="line"/>
      <point x="310" y="0" type="line"/>
      <point x="310" y="73" type="line"/>
      <point x="85" y="73" type="line"/>
    </contour>
    <contour>
      <point x="56" y="824" type="line"/>
      <point x="125" y="686" type="line"/>
      <point x="187" y="686" type="line"/>
      <point x="262" y="824" type="line"/>
      <point x="189" y="824" type="line"/>
      <point x="158" y="779" type="line"/>
      <point x="131" y="824" type="line"/>
    </contour>
  </outline>
</glyph>
<glyph name="emdash" format="1">
  <advance width="319"/>
  <unicode hex="2014"/>
  <outline>
    <contour>
      <point x="33" y="326" type="line"/>
      <point x="33" y="344" type="line"/>
      <point x="249" y="344" type="line"/>
      <point x="249" y="326" type="line"/>
    </contour>
    <contour>
      <point x="276" y="298" type="line"/>
      <point x="276" y="372" type="line"/>
      <point x="5" y="372" type="line"/>
      <point x="5" y="298" type="line"/>
    </contour>
  </outline>
</glyph>
<glyph name="quotesinglbase" format="1">
  <advance width="99"/>
  <unicode hex="201A"/>
  <outline>
    <contour>
      <point x="-3" y="-11" type="line"/>
      <point x="21" y="57" type="line"/>
      <point x="43" y="57" type="line"/>
      <point x="13" y="-11" type="line"/>
    </contour>
    <contour>
      <point x="32" y="-39" type="line"/>
      <point x="84" y="84" type="line"/>
      <point x="2" y="84" type="line"/>
      <point x="-43" y="-39" type="line"/>
    </contour>
  </outline>
</glyph>
<glyph name="quotedblleft" format="1">
  <advance width="212"/>
  <unicode hex="201C"/>
  <outline>
    <contour>
      <point x="26" y="647" type="line"/>
      <point x="44" y="647" type="line"/>
      <point x="44" y="576" type="line"/>
      <point x="26" y="576" type="line"/>
    </contour>
    <contour>
      <point x="-1" y="674" type="line"/>
      <point x="-1" y="548" type="line"/>
      <point x="72" y="548" type="line"/>
      <point x="72" y="674" type="line"/>
    </contour>
    <contour>
      <point x="126" y="647" type="line"/>
      <point x="144" y="647" type="line"/>
      <point x="144" y="576" type="line"/>
      <point x="126" y="576" type="line"/>
    </contour>
    <contour>
      <point x="99" y="674" type="line"/>
      <point x="99" y="548" type="line"/>
      <point x="172" y="548" type="line"/>
      <point x="172" y="674" type="line"/>
    </contour>
  </outline>
</glyph>
<glyph name="quotedblbase" format="1">
  <advance width="248"/>
  <unicode hex="201E"/>
  <outline>
    <contour>
      <point x="131" y="-11" type="line"/>
      <point x="155" y="57" type="line"/>
      <point x="176" y="57" type="line"/>
      <point x="147" y="-11" type="line"/>
    </contour>
    <contour>
      <point x="-2" y="-11" type="line"/>
      <point x="23" y="57" type="line"/>
      <point x="44" y="57" type="line"/>
      <point x="15" y="-11" type="line"/>
    </contour>
    <contour>
      <point x="33" y="-39" type="line"/>
      <point x="85" y="84" type="line"/>
      <point x="4" y="84" type="line"/>
      <point x="-41" y="-39" type="line"/>
    </contour>
    <contour>
      <point x="165" y="-39" type="line"/>
      <point x="218" y="84" type="line"/>
      <point x="136" y="84" type="line"/>
      <point x="94" y="-39" type="line"/>
    </contour>
  </outline>
</glyph>
<glyph name="ellipsis" format="1">
  <advance width="335"/>
  <unicode hex="2026"/>
  <outline>
    <contour>
      <point x="242" y="28" type="line"/>
      <point x="242" y="57" type="line"/>
      <point x="260" y="57" type="line"/>
      <point x="260" y="28" type="line"/>
    </contour>
    <contour>
      <point x="135" y="28" type="line"/>
      <point x="135" y="57" type="line"/>
      <point x="155" y="57" type="line"/>
      <point x="155" y="28" type="line"/>
    </contour>
    <contour>
      <point x="30" y="28" type="line"/>
      <point x="30" y="57" type="line"/>
      <point x="48" y="57" type="line"/>
      <point x="48" y="28" type="line"/>
    </contour>
    <contour>
      <point x="76" y="0" type="line"/>
      <point x="76" y="84" type="line"/>
      <point x="3" y="84" type="line"/>
      <point x="3" y="0" type="line"/>
    </contour>
    <contour>
      <point x="182" y="0" type="line"/>
      <point x="182" y="84" type="line"/>
      <point x="108" y="84" type="line"/>
      <point x="108" y="0" type="line"/>
    </contour>
    <contour>
      <point x="288" y="0" type="line"/>
      <point x="288" y="84" type="line"/>
      <point x="214" y="84" type="line"/>
      <point x="214" y="0" type="line"/>
    </contour>
  </outline>
</glyph>
<glyph name="fraction" format="1">
  <advance width="353"/>
  <unicode hex="2044"/>
  <outline>
    <contour>
      <point x="311" y="647" type="line"/>
      <point x="63" y="28" type="line"/>
      <point x="44" y="28" type="line"/>
      <point x="291" y="647" type="line"/>
    </contour>
    <contour>
      <point x="272" y="674" type="line"/>
      <point x="3" y="0" type="line"/>
      <point x="81" y="0" type="line"/>
      <point x="351" y="674" type="line"/>
    </contour>
  </outline>
</glyph>
